# xmcd
#
# Track frame offsets: 
#        150
#        12153
#        31555
#        45895
#        58848
#        72837
#        88078
#        105029
#        122431
#        138420
#        149586
#        162413
#
# Disc length: 2321 seconds
#
# Revision: 0
# Processed by: cddbd v1.5.2PL0 Copyright (c) Steve Scherf et al.
# Submitted via: ExactAudioCopy v1.3
#
DISCID=92090f0c
DTITLE=Dana Gillespie - I'm a Woman The Blues Line
DYEAR=1991
DGENRE=Blues
TTITLE0=Big Ten Inch
TTITLE1=Mighty Tight Woman
TTITLE2=7Th Floor Boogie
TTITLE3=Seacruise
TTITLE4=Choo Choo Ch' Boogie
TTITLE5=Gotta Go Home
TTITLE6=Shooee ... Get Out!
TTITLE7=I'm A Woman
TTITLE8=Meat On Their Bones
TTITLE9=Mama, He Treats Your Daughter Mean
TTITLE10=Oo Ee Baby
TTITLE11=Rockin' Pneumonia And The Boogie Woogie Flu
EXTD=
EXTT0=
EXTT1=
EXTT2=
EXTT3=
EXTT4=
EXTT5=
EXTT6=
EXTT7=
EXTT8=
EXTT9=
EXTT10=
EXTT11=
PLAYORDER=
